<?xml version="1.0" encoding="UTF-8"?>
<!DOCTYPE svg PUBLIC "-//W3C//DTD SVG 1.1//EN" "http://www.w3.org/Graphics/SVG/1.1/DTD/svg11.dtd">
<!-- Creator: CorelDRAW -->
<svg xmlns="http://www.w3.org/2000/svg" xml:space="preserve" width="100mm" height="100mm" style="shape-rendering:geometricPrecision; text-rendering:geometricPrecision; image-rendering:optimizeQuality; fill-rule:evenodd; clip-rule:evenodd"
viewBox="0 0 100 100">
 <defs>
  <style type="text/css">
   <![CDATA[
    .str0 {stroke:white;stroke-width:0.0762}
    .fil4 {fill:white}
    .fil0 {fill:#2B2828}
    .fil2 {fill:#322073}
    .fil3 {fill:#D52C27}
    .fil1 {fill:#1F1A17;fill-rule:nonzero}
    .fil5 {fill:#322073;fill-rule:nonzero}
   ]]>
  </style>
   <clipPath id="id0">
    <path d="M87.5643 12.1441c-20.9516,7.1724 -28.2407,1.19 -37.4539,-4.3502l0 0.0708c-9.2131,5.5402 -16.5022,11.5227 -37.4539,4.3503 -5.3694,69.3922 30.578,76.7792 37.4539,81.0352l0 -0.0708c6.876,-4.2561 42.8234,-11.643 37.4539,-81.0353z"/>
   </clipPath>
 </defs>
 <g id="Capa_x0020_1">
  <metadata id="CorelCorpID_0Corel-Layer"/>
  <g>
   <path class="fil0" d="M91.1281 8.4924c-22.9452,7.8548 -30.9279,1.3031 -41.0177,-4.7642l0 0.0776c-10.0898,6.0673 -18.0725,12.619 -41.0177,4.7641 -5.8804,75.9951 33.4875,84.085 41.0177,88.746l0 -0.0776c7.5302,-4.661 46.8981,-12.7508 41.0177,-88.7459z"/>
   <path class="fil1" d="M50.3604 3.7282l-0.5 0 0.3818 -0.2052 0.9413 0.5707 0.931 0.5699 0.925 0.5672 0.9209 0.5611 0.9203 0.5528 0.9234 0.5422 0.9279 0.5276 0.9375 0.5104 0.9482 0.4916 0.9639 0.4698 0.9819 0.4453 1.0038 0.4182 1.0271 0.3874 1.0554 0.3557 1.0859 0.3203 1.1204 0.2824 1.1571 0.2425 1.1978 0.1989 1.2418 0.1537 1.2887 0.1047 1.34 0.0539 1.3932 -0.0004 1.4497 -0.0577 1.5092 -0.1164 1.5728 -0.1792 1.6386 -0.2446 1.7085 -0.3115 1.7806 -0.3833 1.8566 -0.4558 1.935 -0.5321 2.0175 -0.6111 2.1019 -0.6927 0.166 0.4558 -2.1137 0.6965 -2.0291 0.6149 -1.9486 0.5359 -1.8704 0.4596 -1.7962 0.3853 -1.7241 0.3153 -1.6562 0.2464 -1.5904 0.181 -1.5288 0.1184 -1.4691 0.0577 -1.4128 0.0004 -1.3594 -0.0539 -1.3103 -0.1067 -1.2632 -0.1555 -1.2194 -0.2027 -1.1785 -0.2463 -1.14 -0.288 -1.1053 -0.3261 -1.073 -0.3613 -1.0447 -0.395 -1.0176 -0.4238 -0.9955 -0.4511 -0.9757 -0.4754 -0.9598 -0.4972 -0.9453 -0.5162 -0.9357 -0.5314 -0.9274 -0.544 -0.9241 -0.5548 -0.9229 -0.5629 -0.925 -0.5672 -0.931 -0.5699 -0.9393 -0.5689 0.3818 -0.2052zm-0.5 0l0 -0.4347 0.3818 0.2295 -0.3818 0.2052zm0.3818 0.2828l-0.3818 -0.2052 0 -0.0776 0.5 0 0 0.0776 -0.1182 0.2052zm0.1182 -0.2052l0 0.1341 -0.1182 0.0711 0.1182 -0.2052zm-41.0187 4.7821l-0.498 -0.036 0.332 -0.2099 2.1019 0.6927 2.0175 0.6111 1.935 0.5321 1.8566 0.4559 1.7806 0.3832 1.7085 0.3116 1.6386 0.2445 1.5728 0.1792 1.5092 0.1165 1.4497 0.0576 1.3932 0.0005 1.34 -0.054 1.2887 -0.1046 1.2418 -0.1537 1.1978 -0.199 1.1571 -0.2424 1.1204 -0.2824 1.0859 -0.3203 1.0554 -0.3557 1.0271 -0.3874 1.0038 -0.4182 0.9819 -0.4453 0.9639 -0.4698 0.9482 -0.4916 0.9375 -0.5104 0.9279 -0.5276 0.9234 -0.5422 0.9203 -0.5528 0.9209 -0.5611 0.925 -0.5672 0.931 -0.5699 0.9413 -0.5707 0.2636 0.4104 -0.9393 0.5689 -0.931 0.5699 -0.925 0.5672 -0.9229 0.5629 -0.9241 0.5548 -0.9274 0.544 -0.9357 0.5314 -0.9453 0.5162 -0.9598 0.4972 -0.9757 0.4754 -0.9955 0.4511 -1.0176 0.4238 -1.0447 0.395 -1.073 0.3613 -1.1053 0.3261 -1.14 0.288 -1.1785 0.2462 -1.2194 0.2028 -1.2632 0.1555 -1.3103 0.1066 -1.3594 0.054 -1.4128 -0.0005 -1.4691 -0.0576 -1.5288 -0.1185 -1.5904 -0.181 -1.6562 -0.2463 -1.7241 -0.3154 -1.7962 -0.3852 -1.8704 -0.4597 -1.9486 -0.5359 -2.0291 -0.6149 -2.1137 -0.6965 0.332 -0.2099zm-0.498 -0.036l0.0243 -0.3152 0.3077 0.1053 -0.332 0.2099zm41.0167 88.764l0.5 0 -0.3838 0.2034 -0.7822 -0.4405 -0.9606 -0.4762 -1.1236 -0.5226 -1.2719 -0.5801 -1.4039 -0.6484 -1.5218 -0.7284 -1.6256 -0.8203 -1.7144 -0.924 -1.7879 -1.0394 -1.8494 -1.1658 -1.8949 -1.3049 -1.9261 -1.4568 -1.9433 -1.6185 -1.9474 -1.793 -1.9352 -1.9793 -1.9101 -2.1766 -1.8709 -2.3874 -1.8164 -2.6072 -1.748 -2.8418 -1.6663 -3.0852 -1.5686 -3.3424 -1.4588 -3.6103 -1.3338 -3.8892 -1.1957 -4.181 -1.0425 -4.4842 -0.8753 -4.7996 -0.6937 -5.1257 -0.4993 -5.4635 -0.2896 -5.8142 -0.0668 -6.1757 0.17 -6.5491 0.4211 -6.9361 0.498 0.036 -0.4211 6.9191 -0.17 6.5339 0.0668 6.1587 0.2896 5.7952 0.4973 5.4447 0.6919 5.1049 0.8713 4.7768 1.0367 4.4616 1.1879 4.1582 1.326 3.8666 1.449 3.5857 1.5588 3.3178 1.6527 3.0624 1.7342 2.8172 1.8008 2.5864 1.8533 2.3648 1.8925 2.1576 1.9178 1.9603 1.9278 1.776 1.9257 1.6035 1.9085 1.4416 1.8773 1.2935 1.8318 1.1564 1.7743 1.03 1.7008 0.9164 1.6138 0.8145 1.514 0.7248 1.3999 0.6464 1.2719 0.5801 1.1316 0.5264 0.978 0.4856 0.8116 0.4575 -0.3838 0.2034zm0.5 0l0 0.4409 -0.3838 -0.2375 0.3838 -0.2034zm-0.3838 -0.281l0.3838 0.2034 0 0.0776 -0.5 0 0 -0.0776 0.1162 -0.2034zm-0.1162 0.2034l0 -0.1314 0.1162 -0.072 -0.1162 0.2034zm41.3507 -88.518l-0.166 -0.4558 0.332 0.2099 0.4211 6.9361 0.17 6.5491 -0.0668 6.1757 -0.2896 5.8142 -0.4993 5.4635 -0.6937 5.1257 -0.8753 4.7996 -1.0425 4.4842 -1.1957 4.1809 -1.3338 3.8892 -1.4588 3.6104 -1.5686 3.3424 -1.6663 3.0852 -1.748 2.8417 -1.8164 2.6073 -1.8709 2.3873 -1.9101 2.1766 -1.9352 1.9794 -1.9474 1.793 -1.9433 1.6184 -1.9261 1.4568 -1.8949 1.3049 -1.8494 1.1658 -1.7879 1.0394 -1.7144 0.924 -1.6256 0.8203 -1.5218 0.7284 -1.4039 0.6484 -1.2719 0.5801 -1.1236 0.5226 -0.9606 0.4762 -0.7822 0.4405 -0.2676 -0.4068 0.8116 -0.4575 0.978 -0.4856 1.1316 -0.5264 1.2719 -0.5801 1.3999 -0.6464 1.514 -0.7248 1.6138 -0.8145 1.7008 -0.9164 1.7743 -1.03 1.8318 -1.1564 1.8773 -1.2935 1.9085 -1.4416 1.9257 -1.6034 1.9278 -1.776 1.9178 -1.9604 1.8925 -2.1576 1.8533 -2.3647 1.8008 -2.5865 1.7342 -2.8171 1.6527 -3.0624 1.5588 -3.3178 1.449 -3.5858 1.326 -3.8666 1.1879 -4.1581 1.0367 -4.4616 0.8713 -4.7768 0.6919 -5.1049 0.4973 -5.4447 0.2896 -5.7952 0.0668 -6.1587 -0.17 -6.5339 -0.4211 -6.9191 0.332 0.2099zm-0.166 -0.4558l0.3076 -0.1053 0.0244 0.3152 -0.332 -0.2099z"/>
  </g>
  <path class="fil2" d="M87.5643 12.1441c-20.9516,7.1724 -28.2407,1.19 -37.4539,-4.3502l0 0.0708c-9.2131,5.5402 -16.5022,11.5227 -37.4539,4.3503 -5.3694,69.3922 30.578,76.7792 37.4539,81.0352l0 -0.0708c6.876,-4.2561 42.8234,-11.643 37.4539,-81.0353z"/>
  <g style="clip-path:url(#id0)">
   <g>
    <polygon class="fil3" points="9.5622,10.5004 94.0815,-0.2949 93.8182,19.4526 21.9373,72.3759 6.4026,52.6284 4.0329,12.8701 "/>
    <polygon class="fil4 str0" points="10.0888,66.4517 82.7596,-1.743 107.773,6.9459 19.3043,94.8881 5.0861,68.0315 "/>
   </g>
  </g>
  <g>
  </g>
  <path class="fil5" d="M38.4134 60.3204l3.708 -1.7996c0.6834,1.0607 1.1157,2.0826 1.2995,3.0681 0.1838,0.9855 0.126,1.9227 -0.171,2.8091 -0.2943,0.8891 -0.9025,1.7855 -1.817,2.6922 -1.112,1.1026 -2.203,1.8218 -3.2654,2.1553 -1.0675,0.3332 -2.3143,0.295 -3.7381,-0.1169 -1.4215,-0.4143 -2.8437,-1.3343 -4.2648,-2.7675 -1.8956,-1.9117 -2.9039,-3.8289 -3.0195,-5.7458 -0.1184,-1.9197 0.6464,-3.6965 2.2919,-5.3281 1.2883,-1.2774 2.591,-1.9878 3.913,-2.1309 1.3222,-0.1431 2.7657,0.2173 4.3307,1.0812l-2.0951 3.4691c-0.4469,-0.2555 -0.8053,-0.4121 -1.0751,-0.4698 -0.4455,-0.0969 -0.8701,-0.0918 -1.2715,0.013 -0.4039,0.1071 -0.7616,0.3179 -1.0783,0.6319 -0.7144,0.7084 -0.9418,1.5792 -0.6777,2.6076 0.1917,0.7698 0.7983,1.6721 1.8247,2.7072 1.2718,1.2826 2.3149,1.9868 3.1296,2.1228 0.8172,0.1335 1.5353,-0.1092 2.1568,-0.7255 0.6049,-0.5997 0.8728,-1.244 0.8011,-1.9354 -0.069,-0.6888 -0.3971,-1.4673 -0.9818,-2.338zm18.1507 -12.4195l-3.6005 3.5701 1.395 2.3976 -3.2291 3.2017 -7.6075 -15.3597 3.4457 -3.4166 15.2969 7.7354 -3.3077 3.2797 -2.3928 -1.4082zm-3.1387 -1.8415l-5.2477 -3.0301 2.9925 5.2661 2.2552 -2.236zm3.151 -17.2928l5.2532 -5.2088c1.143,-1.1333 2.3043,-1.6768 3.4839,-1.6254 1.1771,0.0488 2.332,0.642 3.4544,1.7739 1.1571,1.167 1.7514,2.3856 1.7803,3.6579 0.029,1.2723 -0.5934,2.5401 -1.8674,3.8033l-1.7289 1.7143 4.2498 4.286 -3.1743 3.1475 -11.451 -11.5487zm8.056 1.7759l0.7739 -0.7674c0.6097,-0.6044 0.9186,-1.1455 0.9289,-1.6303 0.008,-0.4825 -0.172,-0.9118 -0.54,-1.2829 -0.3599,-0.363 -0.7737,-0.5659 -1.236,-0.6035 -0.4625,-0.0426 -0.9903,0.23 -1.5808,0.8156l-0.9002 0.8925 2.5542 2.576z"/>
 </g>
</svg>
